<?xml version="1.0" standalone="no"?>
<!DOCTYPE svg PUBLIC "-//W3C//DTD SVG 20010904//EN"
 "http://www.w3.org/TR/2001/REC-SVG-20010904/DTD/svg10.dtd">
<svg version="1.0" xmlns="http://www.w3.org/2000/svg"
 width="1440.000000pt" height="1079.000000pt" viewBox="0 0 1440.000000 1079.000000"
 preserveAspectRatio="xMidYMid meet">

<g transform="translate(0.000000,1079.000000) scale(0.100000,-0.100000)"
fill="#000000" stroke="none">
<path d="M0 5395 l0 -5395 7200 0 7200 0 0 5395 0 5395 -7200 0 -7200 0 0
-5395z m7976 1624 c11 -13 14 -23 8 -27 -79 -53 -104 -60 -104 -29 0 12 59 77
70 77 4 0 15 -9 26 -21z m-1115 -146 c37 -22 58 -67 71 -151 12 -78 5 -262
-12 -309 -10 -29 -9 -36 11 -64 l22 -32 -23 -19 c-23 -19 -24 -19 -38 5 -14
23 -19 24 -78 19 -121 -9 -155 46 -162 257 -8 234 27 308 141 310 22 1 52 -7
68 -16z m-501 -23 c0 -28 -2 -30 -40 -30 l-40 0 -2 -247 -3 -248 -35 0 -35 0
-3 248 -2 247 -40 0 c-38 0 -40 2 -40 30 l0 30 120 0 120 0 0 -30z m208 -217
c75 -351 71 -313 29 -313 -35 0 -36 1 -48 55 l-12 56 -56 -3 -55 -3 -11 -50
c-9 -47 -12 -50 -43 -53 -25 -3 -32 0 -32 15 0 10 25 136 57 281 l57 262 31 0
30 0 53 -247z m502 28 c0 -121 4 -231 10 -245 8 -21 16 -26 44 -26 25 0 38 6
46 19 6 12 10 109 10 245 l0 226 41 0 41 0 -4 -237 c-5 -259 -10 -287 -63
-311 -36 -16 -110 -15 -144 3 -46 23 -51 57 -51 311 l0 234 35 0 35 0 0 -219z
m450 189 l0 -30 -60 0 -60 0 0 -90 0 -90 55 0 c54 0 55 0 55 -30 0 -30 -1 -30
-55 -30 l-55 0 0 -95 0 -95 60 0 60 0 0 -35 0 -36 -97 3 -98 3 -3 278 -2 277
100 0 100 0 0 -30z m228 14 c69 -48 70 -209 2 -257 l-23 -16 47 -124 c25 -68
46 -129 46 -135 0 -7 -14 -12 -34 -12 l-34 0 -48 131 -49 130 -3 -131 -3 -131
-37 3 -37 3 -3 278 -2 277 78 0 c54 0 84 -5 100 -16z m200 -261 l-3 -278 -37
-3 -38 -3 0 280 0 281 40 0 40 0 -2 -277z m265 5 c31 -150 57 -276 57 -280 0
-5 -15 -8 -34 -8 -34 0 -35 1 -47 55 l-12 56 -56 -3 -55 -3 -11 -50 c-9 -47
-12 -50 -43 -53 -26 -3 -32 0 -32 16 0 11 25 134 55 273 30 139 55 257 55 261
0 4 15 8 33 8 l33 0 57 -272z m-2523 2 l0 -30 -2390 0 -2390 0 0 30 0 30 2390
0 2390 0 0 -30z m7790 0 l0 -30 -2390 0 -2390 0 0 30 0 30 2390 0 2390 0 0
-30z m-3964 -599 l49 -19 3 -92 c1 -51 -1 -90 -5 -88 -77 39 -115 52 -154 52
-116 0 -192 -114 -160 -240 16 -62 40 -95 162 -226 192 -204 225 -274 217
-454 -5 -116 -34 -190 -100 -256 -64 -64 -116 -83 -228 -83 -84 1 -101 4 -147
28 l-53 27 0 93 0 94 66 -34 c115 -57 207 -41 258 47 30 50 28 167 -3 232 -13
27 -76 104 -147 179 -142 151 -178 201 -201 278 -22 76 -14 238 14 302 40 89
125 161 213 180 51 11 160 1 216 -20z m-7396 -611 l0 -620 155 0 155 0 0 -85
0 -85 -247 2 -248 3 -3 703 -2 702 95 0 95 0 0 -620z m954 -72 c82 -381 149
-697 150 -703 0 -6 -36 -11 -87 -13 -103 -3 -95 -14 -128 161 l-22 117 -138 0
c-77 0 -139 -3 -140 -7 0 -5 -13 -66 -27 -138 l-27 -130 -87 -3 c-79 -2 -88
-1 -88 15 0 16 28 150 110 523 10 47 55 254 100 460 44 206 83 383 86 393 4
14 18 17 78 17 l73 0 147 -692z m993 651 c57 -29 73 -43 100 -88 41 -69 57
-142 56 -261 -1 -159 -44 -272 -125 -330 -51 -37 -91 -49 -195 -57 l-83 -6 0
-314 0 -314 -92 3 -93 3 -3 704 -2 703 184 -4 185 -4 68 -35z m697 -606 c76
-357 144 -671 151 -700 7 -28 10 -54 7 -57 -3 -3 -43 -6 -88 -6 -69 0 -85 3
-92 18 -5 9 -19 72 -32 140 l-22 122 -139 0 c-136 0 -139 -1 -144 -22 -3 -13
-16 -75 -28 -138 l-23 -115 -79 -3 c-107 -4 -106 -5 -89 65 7 32 32 141 54
243 119 552 231 1067 236 1083 4 14 17 17 78 17 l72 0 138 -647z m633 618 c66
-29 114 -82 144 -157 31 -80 34 -270 5 -354 -27 -79 -68 -133 -120 -161 -25
-13 -46 -27 -46 -30 0 -4 53 -148 119 -320 65 -173 121 -324 125 -336 7 -23 6
-23 -82 -23 -60 0 -93 4 -99 13 -6 6 -66 161 -134 342 l-124 330 -3 -343 -2
-343 -93 3 -92 3 -3 690 c-1 380 0 696 3 704 4 11 38 12 178 9 152 -4 178 -7
224 -27z m738 1 c63 -29 100 -64 130 -123 69 -134 54 -384 -29 -492 -15 -19
-47 -45 -71 -58 -25 -13 -45 -27 -45 -30 0 -4 56 -155 125 -335 69 -181 125
-332 125 -336 0 -14 -177 -9 -188 5 -5 6 -62 154 -127 327 -64 173 -121 322
-126 330 -5 9 -9 -124 -9 -328 l0 -343 -92 3 -93 3 -3 704 -2 703 177 -4 c158
-3 184 -6 228 -26z m523 -674 l-3 -703 -90 0 -90 0 -3 703 -2 702 95 0 95 0
-2 -702z m362 82 l0 -619 153 -3 152 -3 0 -80 0 -80 -247 -3 -248 -2 0 705 0
705 95 0 95 0 0 -620z m570 0 l0 -619 153 -3 152 -3 0 -80 0 -80 -245 0 -245
0 -3 703 -2 702 95 0 95 0 0 -620z m951 -75 c82 -379 149 -696 149 -703 0 -10
-22 -12 -92 -10 l-93 3 -25 135 -25 135 -140 0 -140 0 -25 -125 c-14 -69 -29
-131 -33 -137 -9 -14 -162 -19 -170 -5 -3 4 48 252 113 552 65 300 134 614
152 698 l33 153 74 -3 74 -3 148 -690z m1391 123 c3 -622 4 -625 59 -653 33
-18 118 -20 152 -4 52 24 52 22 57 644 l5 580 93 3 92 3 0 -553 c0 -330 -4
-579 -10 -618 -30 -184 -134 -259 -347 -248 -154 8 -245 81 -274 220 -9 45
-14 219 -16 616 -3 305 -2 560 1 568 4 11 27 14 95 14 l90 0 3 -572z m818
-133 l0 -706 -92 3 -93 3 -3 690 c-1 380 0 696 3 703 3 8 32 12 95 12 l90 0 0
-705z m750 696 c0 -5 -66 -202 -146 -438 -247 -724 -264 -776 -264 -784 0 -5
88 -9 195 -9 l195 0 1 -47 c0 -27 3 -41 7 -33 3 8 69 308 147 665 l142 650 74
3 74 3 148 -688 c81 -378 147 -696 147 -705 0 -16 -11 -18 -85 -18 -70 0 -86
3 -93 18 -5 9 -20 72 -33 140 l-23 122 -138 0 c-134 0 -138 -1 -143 -22 -3
-13 -16 -75 -28 -138 l-23 -115 -407 -3 c-224 -1 -407 1 -407 5 0 3 95 282
210 619 116 337 210 616 210 619 0 3 -83 5 -185 5 l-185 0 0 80 0 80 305 0
c176 0 305 -4 305 -9z m-5412 -1727 c15 -11 38 -42 52 -70 23 -45 25 -60 25
-189 0 -129 -2 -144 -25 -190 -33 -66 -71 -85 -167 -85 l-73 0 0 281 0 282 80
-5 c59 -3 88 -10 108 -24z m340 -6 c-3 -33 -3 -33 -65 -36 l-63 -3 0 -84 0
-85 55 0 55 0 0 -35 0 -35 -55 0 -55 0 0 -95 0 -95 65 0 65 0 0 -30 0 -30
-100 0 -100 0 0 280 0 280 101 0 100 0 -3 -32z m216 26 c10 -4 16 -18 16 -41
0 -30 -3 -34 -17 -28 -64 27 -108 1 -108 -63 0 -33 8 -48 50 -96 77 -87 93
-114 101 -161 16 -111 -70 -197 -169 -168 -28 7 -32 14 -35 47 -3 34 -1 38 15
31 67 -29 113 -4 113 61 0 46 -12 68 -76 136 -61 64 -74 91 -74 154 0 51 20
96 52 118 22 16 102 22 132 10z m284 -20 c15 -11 38 -42 52 -70 23 -45 25 -60
25 -189 0 -130 -2 -144 -25 -189 -33 -66 -72 -86 -167 -86 l-73 0 0 281 0 282
80 -5 c59 -3 88 -10 108 -24z m340 -6 c-3 -33 -3 -33 -65 -36 l-63 -3 0 -84 0
-85 55 0 55 0 0 -35 0 -35 -55 0 -55 0 0 -95 0 -95 65 0 65 0 0 -30 0 -30
-100 0 -100 0 0 280 0 280 101 0 100 0 -3 -32z m332 -248 l0 -280 -35 0 -35 0
0 245 0 245 -25 0 c-22 0 -25 4 -25 35 l0 35 60 0 60 0 0 -280z m271 270 c48
-26 70 -146 50 -266 -7 -38 -33 -117 -58 -176 l-45 -108 -39 0 c-21 0 -39 2
-39 4 0 2 23 52 50 111 28 59 50 109 50 111 0 3 -9 0 -21 -7 -31 -16 -86 -2
-105 27 -10 14 -19 54 -22 93 -11 154 24 221 113 221 25 0 55 -5 66 -10z m252
-87 c-66 -142 -67 -146 -44 -133 31 16 68 12 96 -12 53 -47 55 -243 2 -296
-32 -31 -94 -39 -136 -17 -47 24 -61 67 -61 181 0 80 5 111 30 185 16 49 41
111 55 139 24 47 28 50 65 50 l39 0 -46 -97z m341 67 c33 -39 40 -80 34 -199
-4 -88 -9 -107 -54 -211 l-49 -115 -42 -3 -42 -3 49 103 c27 57 50 106 50 110
0 4 -15 4 -34 1 -70 -11 -108 40 -110 152 -2 146 28 195 120 195 46 0 55 -4
78 -30z m5310 -92 l19 -93 14 70 c21 111 23 115 38 115 18 0 22 -17 30 -125 3
-49 9 -105 12 -122 4 -29 2 -33 -16 -33 -19 0 -21 5 -21 69 0 39 -4 72 -9 75
-4 3 -13 -24 -19 -61 -10 -62 -25 -94 -37 -81 -3 2 -13 43 -23 89 l-17 84 -2
-55 c-4 -88 -12 -120 -30 -120 -13 0 -14 12 -9 88 13 169 17 192 35 192 13 0
21 -20 35 -92z m236 77 c18 -22 16 -92 -4 -114 -16 -18 -16 -22 8 -82 31 -75
30 -69 7 -69 -14 0 -25 17 -44 68 l-26 67 0 -67 c-1 -61 -3 -68 -21 -68 -19 0
-20 7 -20 140 l0 140 44 0 c27 0 48 -6 56 -15z m-8600 -235 l0 -30 -2250 0
-2250 0 0 30 0 30 2250 0 2250 0 0 -30z m8070 0 l0 -30 -2247 2 -2248 3 -3 28
-3 27 2250 0 2251 0 0 -30z m620 -5 c0 -21 -19 -28 -36 -15 -10 9 -11 16 -3
26 12 15 39 8 39 -11z"/>
<path d="M6763 6812 c-25 -16 -33 -68 -33 -208 0 -174 11 -214 59 -214 37 0
37 3 10 42 l-22 30 22 21 c21 21 21 21 35 2 14 -19 15 -19 22 -2 3 10 5 78 2
152 -3 103 -8 139 -21 159 -17 26 -50 34 -74 18z"/>
<path d="M6467 6655 c-10 -60 -21 -122 -24 -137 -5 -27 -4 -28 42 -28 39 0 46
3 41 18 -5 17 -33 182 -38 232 -2 14 -11 -24 -21 -85z"/>
<path d="M7650 6730 c0 -88 1 -90 24 -90 30 0 45 19 53 64 10 63 -16 116 -58
116 -17 0 -19 -8 -19 -90z"/>
<path d="M8121 6743 c-1 -6 -10 -64 -21 -128 -11 -64 -20 -119 -20 -121 0 -2
20 -4 44 -4 37 0 43 3 40 18 -3 9 -13 69 -23 132 -11 63 -19 110 -20 103z"/>
<path d="M2840 5677 c0 -43 -31 -247 -70 -459 -17 -90 -30 -169 -30 -175 0
-10 28 -13 104 -13 58 0 107 3 110 8 2 4 -7 66 -20 137 -31 161 -74 449 -74
492 0 17 -4 35 -10 38 -6 4 -10 -8 -10 -28z"/>
<path d="M3820 5630 l0 -230 28 0 c44 0 105 20 130 43 66 61 69 282 4 359 -31
36 -78 58 -127 58 l-35 0 0 -230z"/>
<path d="M4540 5680 c0 -43 -44 -326 -76 -490 -13 -69 -24 -133 -24 -142 0
-16 12 -18 104 -18 58 0 107 3 109 8 3 4 -10 88 -28 187 -19 99 -41 245 -51
325 -17 137 -34 204 -34 130z"/>
<path d="M5180 5630 l0 -230 37 0 c51 0 115 33 138 72 17 28 20 51 20 158 0
108 -3 130 -20 160 -25 43 -76 70 -132 70 l-43 0 0 -230z"/>
<path d="M5920 5630 l0 -230 38 0 c64 1 116 31 142 84 20 42 22 59 19 159 -3
90 -8 119 -24 147 -25 43 -76 70 -132 70 l-43 0 0 -230z"/>
<path d="M8297 5595 c-10 -77 -35 -232 -56 -345 -21 -113 -36 -208 -34 -212 2
-5 52 -8 110 -8 l106 0 -6 38 c-3 20 -21 132 -41 247 -19 116 -41 257 -48 315
l-13 105 -18 -140z"/>
<path d="M11832 5605 c-7 -59 -29 -195 -48 -303 -20 -109 -38 -214 -41 -234
l-6 -38 106 0 c58 0 108 3 110 8 3 4 -8 75 -24 157 -15 83 -38 224 -49 315
-12 91 -25 173 -29 183 -4 11 -12 -26 -19 -88z"/>
<path d="M5970 4030 c0 -234 1 -239 62 -203 42 24 56 71 57 188 1 153 -28 225
-91 225 l-28 0 0 -210z"/>
<path d="M6810 4025 c0 -239 -1 -237 67 -196 38 24 53 81 53 199 -1 140 -32
212 -92 212 l-28 0 0 -215z"/>
<path d="M7793 4242 c-32 -22 -45 -134 -21 -187 14 -30 53 -34 68 -6 13 25 13
146 0 170 -11 22 -33 32 -47 23z"/>
<path d="M8062 3995 c-15 -33 -15 -112 -1 -154 8 -23 17 -31 35 -31 32 0 45
30 45 105 0 35 -5 73 -11 84 -15 30 -54 27 -68 -4z"/>
<path d="M8360 4230 c-16 -16 -20 -34 -20 -91 0 -82 11 -109 46 -109 31 0 44
31 44 105 0 94 -30 135 -70 95z"/>
<path d="M13950 4204 c0 -46 13 -55 33 -22 13 20 0 68 -18 68 -11 0 -15 -12
-15 -46z"/>
</g>
</svg>
